<svg width="45" height="45" viewBox="0 0 45 45" fill="none" xmlns="http://www.w3.org/2000/svg">
<path d="M34.8695 21.81C34.8695 23.1483 34.8695 24.4865 34.8695 25.8248C34.8538 26.4748 34.7718 27.1215 34.6249 27.7549C34.3531 29.0352 33.8113 30.2428 33.0357 31.2971C32.0774 32.6301 30.792 33.6938 29.3031 34.3856C28.7121 34.6503 28.101 34.8677 27.4756 35.0359C27.2221 35.1007 26.9652 35.151 26.7061 35.1865C26.5973 35.2053 26.566 35.2555 26.5639 35.3663C26.5655 35.858 26.6159 36.3483 26.7144 36.83C26.8479 37.5184 27.09 38.1812 27.4317 38.7935C27.6655 39.2345 27.9543 39.6442 28.2911 40.0126C28.568 40.2671 28.8909 40.4665 29.2425 40.6002C29.9956 40.9471 30.8338 41.0656 31.6535 40.941C32.3351 40.8484 33.0051 40.6844 33.6525 40.4517C34.6909 40.071 35.651 39.5042 36.4859 38.7789C37.3101 38.0704 38.034 37.2529 38.6376 36.3491C39.364 35.2697 39.9659 34.1116 40.4317 32.8968C40.6486 32.349 40.8377 31.7907 40.9984 31.2239C41.1914 30.5432 41.3492 29.8529 41.471 29.1559C41.5965 28.4114 41.6801 27.6649 41.7449 26.9163C41.8125 26.2053 41.8237 25.49 41.7784 24.7772C41.7232 23.708 41.5628 22.6469 41.2995 21.6093C41.1385 20.9987 40.9608 20.3923 40.7475 19.8005C40.5004 19.1235 40.2048 18.4652 39.863 17.8307C39.4417 17.0235 38.952 16.254 38.3992 15.5306C37.6851 14.5998 36.8765 13.7455 35.9862 12.9816C34.6233 11.8097 33.0769 10.8701 31.4088 10.2005C30.8732 9.98172 30.3259 9.79254 29.7695 9.63378C29.1927 9.47082 28.6078 9.3382 28.0171 9.23649C26.8852 9.03992 25.736 8.96074 24.5878 9.0002C23.5526 9.03688 22.5233 9.17272 21.514 9.40586C21.0268 9.51878 20.5437 9.64633 20.0691 9.79689C19.2518 10.0575 18.4573 10.3848 17.6936 10.7755C16.9638 11.1477 16.0689 10.6898 15.8117 9.97881C15.7031 9.63424 15.7269 9.26156 15.8785 8.93363C16.0301 8.60569 16.2985 8.3461 16.6314 8.2056C17.503 7.79824 18.3966 7.43942 19.3079 7.13079C19.6613 7.0116 20.0272 6.92169 20.3911 6.82759C20.8302 6.71467 21.2777 6.63521 21.7189 6.52648C21.905 6.48048 22.0995 6.46584 22.2898 6.43866C23.6033 6.24539 24.933 6.18515 26.2586 6.25882C26.8459 6.28794 27.4315 6.34656 28.013 6.43447C28.5232 6.51812 29.0292 6.62476 29.5353 6.7314C30.3687 6.91514 31.1872 7.16118 31.9839 7.46745C32.958 7.83113 33.8996 8.27673 34.7984 8.79945C35.6811 9.30711 36.5235 9.88174 37.3182 10.5183C38.2506 11.2672 39.111 12.1017 39.8881 13.0108C40.6423 13.891 41.3168 14.8364 41.9038 15.8359C42.3851 16.6392 42.8046 17.4781 43.1585 18.3451C43.4495 19.0611 43.694 19.7952 43.8903 20.5428C44.0179 21.0572 44.1287 21.5716 44.2312 22.0902C44.533 23.6856 44.6334 25.3126 44.5302 26.9331C44.4988 27.506 44.4382 28.079 44.3671 28.6477C44.3023 29.158 44.2249 29.6661 44.1162 30.1679C43.9149 31.1526 43.6509 32.1235 43.3258 33.0745C42.9391 34.1938 42.4622 35.2799 41.8997 36.3219C41.0464 37.921 39.931 39.3657 38.6 40.596C37.833 41.2939 36.9807 41.8918 36.0635 42.3755C35.4927 42.6784 34.894 42.9256 34.2757 43.1136C33.7879 43.2602 33.2922 43.3788 32.791 43.4691C31.8455 43.6408 30.8812 43.6837 29.9242 43.5967C28.7996 43.493 27.7263 43.0773 26.8252 42.3964C25.8889 41.6885 25.1654 40.7364 24.7342 39.6446C24.4183 38.8755 24.1848 38.075 24.0379 37.2566C23.9258 36.6241 23.847 35.9861 23.8016 35.3454C23.8036 35.3089 23.7922 35.273 23.7694 35.2445C23.7467 35.2159 23.7142 35.1968 23.6782 35.1906C23.4717 35.1366 23.2623 35.0947 23.0509 35.0652C22.5362 34.953 22.0319 34.7977 21.5432 34.601C19.29 33.6855 17.4615 31.9592 16.4181 29.7623C16.0879 29.0729 15.8422 28.3463 15.6862 27.598C15.557 27.0445 15.4869 26.4789 15.4771 25.9105C15.4771 23.0514 15.4771 20.1936 15.4771 17.3372C15.4719 17.1506 15.5049 16.965 15.574 16.7916C15.6431 16.6182 15.747 16.4608 15.8792 16.329C16.0113 16.1972 16.1691 16.0938 16.3426 16.0252C16.5162 15.9566 16.702 15.9242 16.8886 15.9299C18.2687 15.9299 19.6488 15.9299 21.0288 15.9299C21.3447 15.9353 21.6493 16.0481 21.8923 16.2499C22.1354 16.4517 22.3023 16.7303 22.3657 17.0397C22.429 17.3492 22.385 17.671 22.2408 17.9521C22.0966 18.2331 21.8609 18.4566 21.5725 18.5856C21.4054 18.6626 21.2233 18.7018 21.0393 18.7006C20.1715 18.6901 19.3058 18.7006 18.438 18.7006C18.2896 18.7006 18.2289 18.7278 18.2289 18.8909C18.2289 21.2287 18.2289 23.5644 18.2436 25.9022C18.2652 26.8946 18.5179 27.8684 18.9817 28.746C19.4211 29.6166 20.0394 30.3846 20.7961 30.9997C21.5528 31.6148 22.4309 32.0632 23.3729 32.3154C24.0655 32.5058 24.7844 32.5828 25.5016 32.5434C26.9682 32.4684 28.3733 31.9302 29.5147 31.0063C30.6562 30.0824 31.4753 28.8203 31.8542 27.4015C32.03 26.6996 32.1116 25.9774 32.0968 25.254C32.0884 23.1378 32.0884 21.0231 32.0968 18.9097C32.0968 18.7341 32.0508 18.7006 31.8877 18.7006C31.0513 18.7006 30.2148 18.7006 29.391 18.7006C29.0602 18.717 28.7344 18.6143 28.4729 18.4111C28.2113 18.2079 28.0313 17.9176 27.9655 17.593C27.8998 17.2683 27.9525 16.9309 28.1143 16.6419C28.2761 16.3528 28.5362 16.1314 28.8473 16.0178C29.0297 15.9531 29.2226 15.9233 29.4161 15.9299C30.7397 15.9299 32.0654 15.9509 33.3891 15.9299C33.5862 15.9265 33.7821 15.963 33.9648 16.0371C34.1475 16.1112 34.3134 16.2215 34.4525 16.3613C34.5915 16.5012 34.7009 16.6677 34.774 16.8508C34.8471 17.034 34.8824 17.23 34.8779 17.4271C34.8486 18.8909 34.8779 20.3546 34.8779 21.8184L34.8695 21.81Z" fill="#043BFE"/>
<path d="M18.2514 39.4793C18.2868 39.8891 18.2529 40.3019 18.151 40.7004C17.8778 41.8774 17.2281 42.9331 16.3005 43.7074C15.732 44.1874 15.0697 44.5435 14.3558 44.7529C13.7283 44.9474 13.0711 45.0282 12.4153 44.9913C11.8214 44.9469 11.2377 44.813 10.6839 44.594C9.74582 44.2295 8.92869 43.6094 8.32518 42.804C7.96555 42.3344 7.68708 41.8078 7.5013 41.2462C7.27533 40.6063 7.17246 39.9295 7.1981 39.2513C7.23766 38.2098 7.57432 37.2012 8.16835 36.3448C8.21274 36.2681 8.26162 36.1941 8.31472 36.1231C8.42555 35.9935 8.62001 35.8701 8.60538 35.7154C8.59074 35.5606 8.43809 35.3912 8.34609 35.2302C8.0036 34.6369 7.69502 34.0246 7.42184 33.3964C7.14268 32.7638 6.89562 32.1175 6.68161 31.4601C6.5666 31.1025 6.4725 30.7386 6.37422 30.3769C6.25085 29.9252 6.16512 29.4652 6.07311 29.0093C5.98892 28.5893 5.92888 28.1649 5.89328 27.738C5.77307 26.6346 5.74788 25.523 5.818 24.4153C5.84651 23.8768 5.90234 23.3401 5.98529 22.8073C6.07102 22.2908 6.17348 21.7743 6.28431 21.262C6.45739 20.499 6.68022 19.7481 6.95135 19.0141C7.25504 18.1667 7.62057 17.3427 8.04498 16.5488C8.65524 15.3978 9.38185 14.3125 10.2134 13.3097C10.5757 12.8409 10.9773 12.4036 11.4137 12.0028C11.6909 11.7892 12.039 11.6889 12.3874 11.7222C12.7358 11.7556 13.0585 11.92 13.2902 12.1823C13.5219 12.4446 13.6454 12.7851 13.6355 13.135C13.6256 13.4848 13.4832 13.8179 13.2371 14.0667C12.234 15.0991 11.3695 16.2575 10.6651 17.5127C10.2802 18.2003 9.94816 18.9161 9.67181 19.654C9.3088 20.6037 9.02894 21.5833 8.83539 22.5814C8.7392 23.0875 8.67647 23.6019 8.62629 24.1184C8.54607 24.8536 8.52509 25.5942 8.56356 26.3328C8.60374 27.1607 8.70368 27.9846 8.86258 28.7982C8.97549 29.3356 9.09887 29.873 9.25779 30.3978C9.49158 31.1975 9.79236 31.976 10.1569 32.7252C10.3765 33.1705 10.6023 33.6097 10.847 34.0425C10.8605 34.0754 10.8808 34.1051 10.9067 34.1296C10.9325 34.154 10.9633 34.1727 10.9969 34.1844C11.0305 34.1961 11.0662 34.2005 11.1017 34.1973C11.1371 34.1941 11.1715 34.1834 11.2025 34.1659C11.8761 33.9454 12.5896 33.8741 13.2935 33.9568C14.285 34.0648 15.2298 34.4351 16.0307 35.0295C16.8597 35.6369 17.5033 36.463 17.8897 37.4154C18.1731 38.0646 18.2972 38.7723 18.2514 39.4793ZM12.7227 36.7044C12.1747 36.7028 11.6386 36.8637 11.1823 37.1669C10.7259 37.4701 10.3697 37.902 10.1589 38.4077C9.94807 38.9134 9.89204 39.4704 9.99792 40.008C10.1038 40.5456 10.3668 41.0396 10.7537 41.4277C11.1405 41.8157 11.6338 42.0802 12.1711 42.1877C12.7084 42.2952 13.2655 42.2409 13.7718 42.0316C14.2782 41.8223 14.7111 41.4674 15.0157 41.012C15.3203 40.5565 15.4828 40.0209 15.4829 39.473C15.4842 39.1097 15.4138 38.7498 15.2757 38.4138C15.1376 38.0778 14.9345 37.7725 14.678 37.5152C14.4215 37.258 14.1168 37.0539 13.7812 36.9148C13.4457 36.7756 13.0859 36.7041 12.7227 36.7044Z" fill="#043CFE"/>
<path d="M3.73127 4.60051C3.48987 4.60789 3.2553 4.51984 3.07838 4.35544C2.90146 4.19105 2.79645 3.96356 2.78611 3.72227C2.78328 3.47353 2.87841 3.23366 3.05095 3.05446C3.22349 2.87527 3.45959 2.77114 3.70827 2.76457C3.82979 2.76589 3.94983 2.7915 4.06132 2.83988C4.17281 2.88827 4.2735 2.95846 4.35747 3.04633C4.44144 3.13419 4.50699 3.23796 4.55028 3.35153C4.59356 3.46509 4.6137 3.58617 4.60951 3.70763C4.59487 3.88537 4.66179 3.90628 4.80398 3.92929C5.6404 4.07148 6.47682 4.21576 7.31324 4.37677C7.52235 4.41859 7.61226 4.37677 7.67709 4.16767C7.93219 3.36261 8.20612 2.56383 8.47378 1.76295C8.49438 1.72148 8.50063 1.67433 8.49155 1.62892C8.48247 1.5835 8.45856 1.54239 8.42359 1.51203C8.27594 1.35012 8.19218 1.14007 8.18789 0.920999C8.18361 0.701924 8.2591 0.488759 8.4003 0.321207C8.54151 0.153655 8.7388 0.0431385 8.95543 0.0102412C9.17207 -0.0226561 9.39327 0.0243086 9.57785 0.142388C9.77182 0.266827 9.91016 0.461444 9.96394 0.685533C10.0177 0.909621 9.98278 1.14583 9.86642 1.34474C9.83943 1.37821 9.82471 1.4199 9.82471 1.46289C9.82471 1.50588 9.83943 1.54757 9.86642 1.58103C10.2972 2.24808 10.7175 2.92349 11.1441 3.59263C11.5225 4.18649 11.8843 4.79498 12.2941 5.36584C12.5352 5.66108 12.7996 5.93658 13.0845 6.18972C13.2937 6.41346 13.3083 6.54938 13.0845 6.76685L6.7863 13.0776C6.56255 13.2993 6.435 13.3139 6.23217 13.0776C5.60485 12.3395 4.76843 11.8857 3.97383 11.3797C3.28378 10.9427 2.59792 10.5015 1.91205 10.0623L1.82632 10.0038C1.74321 9.92708 1.63897 9.8771 1.52712 9.86032C1.41527 9.84354 1.30096 9.86074 1.199 9.9097C1.04086 9.98601 0.861631 10.0069 0.690182 9.96895C0.518734 9.93102 0.365039 9.8365 0.253845 9.70059C0.130166 9.57678 0.0468104 9.41847 0.0147176 9.24644C-0.0173753 9.07441 0.00329454 8.89669 0.0740142 8.73662C0.132148 8.57271 0.238188 8.43005 0.378382 8.32715C0.518576 8.22424 0.686456 8.16583 0.86025 8.15949C0.991884 8.1484 1.12433 8.16707 1.24776 8.21413C1.3712 8.26118 1.48246 8.33542 1.5733 8.43132C1.59479 8.46112 1.62657 8.48189 1.66249 8.48962C1.69841 8.49734 1.73592 8.49147 1.76777 8.47315C2.61674 8.18667 3.4657 7.9002 4.31676 7.62209C4.43386 7.58445 4.44432 7.53426 4.4255 7.42971C4.26239 6.52637 4.09929 5.62304 3.94665 4.71134C3.9111 4.55033 3.81909 4.59633 3.73127 4.60051ZM4.69524 4.52942C4.48614 4.47714 4.52169 4.57333 4.53423 4.64443C4.70988 5.62931 4.88344 6.61629 5.06327 7.59908C5.11345 7.88138 5.06327 7.99429 4.79143 8.0863L1.96851 9.03564C1.90369 9.05864 1.82214 9.05864 1.80959 9.16947C1.79704 9.28029 1.86396 9.31584 1.93296 9.35975C2.10234 9.4643 2.27589 9.56886 2.44318 9.67341C3.44061 10.3007 4.43804 10.928 5.4292 11.5784C5.57139 11.6704 5.63831 11.6515 5.75122 11.5386C7.61366 9.66923 9.47957 7.80122 11.349 5.93461C11.4619 5.82378 11.6292 5.7255 11.6605 5.58749C11.6919 5.44948 11.5288 5.31566 11.4514 5.18392C11.3741 5.05218 11.3176 4.97481 11.2423 4.86817C10.891 4.31404 10.5418 3.75991 10.1968 3.19533C9.918 2.75899 9.63919 2.32196 9.36038 1.88424C9.32275 1.82778 9.28929 1.77132 9.19937 1.78177C9.10946 1.79223 9.07391 1.85287 9.05718 1.93233C9.04544 1.97143 9.03147 2.00983 9.01536 2.04734L8.09948 4.79498C8.02211 5.02291 7.91965 5.094 7.70218 5.05846C7.32161 4.99572 6.94103 4.92463 6.56046 4.84935L4.69524 4.52942ZM6.49355 12.4942L6.64829 12.352L12.223 6.7773C12.5116 6.48874 12.5032 6.49501 12.223 6.19181C12.1101 6.07262 12.0558 6.09144 11.9512 6.19181C10.6046 7.54681 9.25583 8.89763 7.90501 10.2443L6.19871 11.9506C6.16316 11.9882 6.07743 12.0363 6.1067 12.0739C6.22171 12.2203 6.35763 12.35 6.49355 12.4942ZM0.9188 8.76798C0.841523 8.76942 0.767621 8.79991 0.711818 8.85339C0.656015 8.90687 0.622407 8.9794 0.617688 9.05655C0.615193 9.13585 0.644303 9.2129 0.698616 9.27075C0.752928 9.32859 0.827994 9.36248 0.907299 9.36498C0.986604 9.36748 1.06365 9.33836 1.12149 9.28405C1.17934 9.22974 1.21323 9.15467 1.21573 9.07537C1.21685 8.99531 1.18626 8.91805 1.13063 8.86047C1.075 8.80288 0.998851 8.76963 0.9188 8.76798ZM4.01356 3.70554C4.01606 3.62457 3.98628 3.54593 3.93079 3.48691C3.90332 3.45769 3.87036 3.43416 3.83379 3.41768C3.79722 3.4012 3.75777 3.39208 3.71768 3.39084C3.63671 3.38834 3.55806 3.41812 3.49904 3.47361C3.44003 3.52909 3.40547 3.60576 3.40297 3.68672C3.40127 3.72639 3.40765 3.76598 3.42173 3.8031C3.43581 3.84022 3.45729 3.87409 3.48487 3.90265C3.51245 3.9312 3.54555 3.95385 3.58216 3.96922C3.61876 3.98458 3.65811 3.99234 3.69781 3.99202C3.73787 3.99398 3.77792 3.98792 3.81561 3.97419C3.8533 3.96047 3.88786 3.93935 3.91728 3.91208C3.94669 3.88481 3.97036 3.85193 3.98689 3.81539C4.00343 3.77885 4.01249 3.73937 4.01356 3.69927V3.70554ZM9.38548 0.905623C9.38604 0.829668 9.35865 0.756158 9.30852 0.699091C9.2584 0.642023 9.18903 0.605383 9.11364 0.596147C9.03381 0.590825 8.95483 0.615219 8.89191 0.664632C8.82898 0.714045 8.78656 0.784986 8.7728 0.863802C8.76967 0.90509 8.77497 0.946584 8.78837 0.98576C8.80178 1.02494 8.82302 1.06097 8.8508 1.09168C8.87857 1.12239 8.9123 1.14713 8.94994 1.16439C8.98758 1.18166 9.02833 1.19108 9.06973 1.1921C9.14947 1.19552 9.22734 1.16736 9.28645 1.11373C9.34557 1.0601 9.38115 0.98532 9.38548 0.905623Z" fill="#043BFE"/>
</svg>
