<svg width="45" height="45" viewBox="0 0 45 45" fill="none" xmlns="http://www.w3.org/2000/svg">
<path d="M34.8694 21.8102C34.8694 23.1484 34.8694 24.4867 34.8694 25.825C34.8536 26.475 34.7717 27.1217 34.6247 27.7551C34.353 29.0354 33.8112 30.243 33.0355 31.2973C32.0773 32.6303 30.7918 33.694 29.303 34.3858C28.7119 34.6505 28.1008 34.8679 27.4754 35.0361C27.2219 35.101 26.965 35.1512 26.7059 35.1867C26.5971 35.2055 26.5658 35.2557 26.5637 35.3665C26.5653 35.8582 26.6157 36.3485 26.7142 36.8303C26.8477 37.5187 27.0898 38.1814 27.4315 38.7938C27.6653 39.2348 27.9541 39.6444 28.2909 40.0129C28.5678 40.2674 28.8907 40.4668 29.2423 40.6004C29.9954 40.9473 30.8336 41.0658 31.6533 40.9413C32.3349 40.8486 33.005 40.6846 33.6524 40.452C34.6907 40.0713 35.6509 39.5044 36.4858 38.7791C37.31 38.0706 38.0339 37.2532 38.6375 36.3493C39.3639 35.2699 39.9658 34.1118 40.4316 32.897C40.6484 32.3492 40.8375 31.7909 40.9983 31.2241C41.1913 30.5434 41.349 29.8531 41.4708 29.1561C41.5963 28.4116 41.68 27.6651 41.7448 26.9165C41.8123 26.2055 41.8235 25.4902 41.7782 24.7774C41.7231 23.7082 41.5627 22.6471 41.2994 21.6094C41.1384 20.9988 40.9606 20.3924 40.7473 19.8007C40.5002 19.1236 40.2046 18.4653 39.8628 17.8309C39.4416 17.0237 38.9519 16.2541 38.3991 15.5307C37.685 14.5999 36.8763 13.7457 35.986 12.9817C34.6231 11.8098 33.0767 10.8702 31.4087 10.2006C30.873 9.98184 30.3257 9.79267 29.7693 9.63391C29.1925 9.47094 28.6076 9.33833 28.017 9.23661C26.885 9.04004 25.7358 8.96086 24.5876 9.00032C23.5524 9.037 22.5231 9.17284 21.5138 9.40598C21.0265 9.5189 20.5435 9.64645 20.0688 9.79701C19.2516 10.0576 18.4571 10.3849 17.6934 10.7756C16.9636 11.1478 16.0686 10.6899 15.8114 9.97893C15.7028 9.63437 15.7266 9.26168 15.8782 8.93375C16.0298 8.60581 16.2983 8.34621 16.6311 8.20571C17.5028 7.79836 18.3964 7.43954 19.3077 7.13091C19.6611 7.01172 20.027 6.9218 20.3908 6.8277C20.83 6.71479 21.2775 6.63533 21.7187 6.52659C21.9048 6.48059 22.0992 6.46595 22.2895 6.43877C23.6031 6.2455 24.9327 6.18526 26.2584 6.25894C26.8457 6.28805 27.4313 6.34667 28.0128 6.43458C28.523 6.51823 29.029 6.62487 29.5351 6.73151C30.3685 6.91525 31.1871 7.16129 31.9837 7.46757C32.9578 7.83125 33.8994 8.27685 34.7983 8.79958C35.6809 9.30723 36.5233 9.88187 37.318 10.5184C38.2505 11.2673 39.1109 12.1018 39.8879 13.011C40.6421 13.8911 41.3167 14.8365 41.9037 15.836C42.385 16.6394 42.8044 17.4782 43.1583 18.3453C43.4494 19.0613 43.6939 19.7954 43.8902 20.543C44.0178 21.0574 44.1286 21.5718 44.231 22.0904C44.5329 23.6858 44.6333 25.3128 44.5301 26.9333C44.4987 27.5062 44.4381 28.0792 44.367 28.6479C44.3021 29.1582 44.2248 29.6663 44.116 30.1681C43.9148 31.1528 43.6508 32.1237 43.3256 33.0747C42.939 34.194 42.4621 35.2801 41.8995 36.3221C41.0462 37.9212 39.9309 39.366 38.5998 40.5963C37.8328 41.2941 36.9806 41.892 36.0634 42.3758C35.4925 42.6787 34.8938 42.9259 34.2755 43.1139C33.7878 43.2604 33.2921 43.3791 32.7908 43.4694C31.8454 43.6411 30.881 43.684 29.924 43.5969C28.7994 43.4932 27.7261 43.0775 26.825 42.3967C25.8886 41.6887 25.1652 40.7367 24.734 39.6448C24.4181 38.8757 24.1846 38.0752 24.0377 37.2568C23.9256 36.6243 23.8467 35.9864 23.8014 35.3456C23.8034 35.3092 23.792 35.2732 23.7692 35.2447C23.7465 35.2161 23.714 35.197 23.678 35.1909C23.4715 35.1368 23.2621 35.0949 23.0507 35.0654C22.536 34.9532 22.0317 34.798 21.543 34.6012C19.2898 33.6857 17.4613 31.9594 16.4178 29.7625C16.0877 29.0731 15.842 28.3465 15.686 27.5982C15.5568 27.0447 15.4867 26.479 15.4769 25.9107C15.4769 23.0516 15.4769 20.1938 15.4769 17.3374C15.4716 17.1508 15.5046 16.9651 15.5737 16.7917C15.6429 16.6184 15.7467 16.461 15.8789 16.3292C16.0111 16.1974 16.1688 16.094 16.3424 16.0254C16.516 15.9567 16.7018 15.9243 16.8883 15.9301C18.2684 15.9301 19.6485 15.9301 21.0286 15.9301C21.3445 15.9354 21.649 16.0483 21.8921 16.25C22.1351 16.4518 22.3021 16.7304 22.3655 17.0399C22.4288 17.3493 22.3848 17.6712 22.2406 17.9522C22.0964 18.2333 21.8606 18.4567 21.5723 18.5857C21.4051 18.6627 21.2231 18.702 21.0391 18.7008C20.1713 18.6903 19.3056 18.7008 18.4378 18.7008C18.2893 18.7008 18.2287 18.7279 18.2287 18.891C18.2287 21.2288 18.2287 23.5646 18.2433 25.9024C18.2649 26.8948 18.5177 27.8685 18.9815 28.7462C19.4209 29.6168 20.0392 30.3848 20.7959 30.9999C21.5526 31.615 22.4307 32.0634 23.3727 32.3157C24.0653 32.506 24.7842 32.583 25.5014 32.5436C26.968 32.4686 28.3731 31.9304 29.5146 31.0065C30.656 30.0826 31.4751 28.8205 31.8541 27.4017C32.0298 26.6998 32.1114 25.9776 32.0966 25.2541C32.0882 23.138 32.0882 21.0232 32.0966 18.9099C32.0966 18.7342 32.0506 18.7008 31.8875 18.7008C31.0511 18.7008 30.2147 18.7008 29.3908 18.7008C29.06 18.7172 28.7342 18.6145 28.4727 18.4112C28.2111 18.208 28.0311 17.9177 27.9653 17.5931C27.8996 17.2685 27.9523 16.931 28.1141 16.642C28.2759 16.353 28.536 16.1316 28.8471 16.0179C29.0295 15.9532 29.2225 15.9234 29.4159 15.9301C30.7395 15.9301 32.0652 15.951 33.3889 15.9301C33.5861 15.9267 33.7819 15.9631 33.9646 16.0372C34.1474 16.1114 34.3132 16.2217 34.4523 16.3615C34.5913 16.5013 34.7007 16.6678 34.7738 16.851C34.8469 17.0341 34.8823 17.2301 34.8777 17.4273C34.8485 18.891 34.8777 20.3548 34.8777 21.8185L34.8694 21.8102Z" fill="white"/>
<path d="M18.2516 39.4792C18.2871 39.889 18.2531 40.3019 18.1513 40.7004C17.8781 41.8774 17.2283 42.9331 16.3007 43.7073C15.7323 44.1874 15.0699 44.5435 14.356 44.7529C13.7285 44.9474 13.0714 45.0282 12.4155 44.9913C11.8216 44.9469 11.2379 44.8129 10.6841 44.594C9.74602 44.2295 8.92888 43.6094 8.32537 42.804C7.96574 42.3343 7.68727 41.8078 7.50149 41.2462C7.27552 40.6063 7.17264 39.9294 7.19829 39.2513C7.23785 38.2097 7.57451 37.2012 8.16854 36.3447C8.21294 36.268 8.26181 36.194 8.31491 36.1231C8.42574 35.9934 8.62021 35.87 8.60557 35.7153C8.59093 35.5606 8.43829 35.3912 8.34628 35.2302C8.00379 34.6369 7.69521 34.0246 7.42203 33.3963C7.14287 32.7637 6.89581 32.1175 6.68179 31.46C6.56679 31.1024 6.47269 30.7386 6.37441 30.3768C6.25104 29.9252 6.1653 29.4651 6.0733 29.0093C5.9891 28.5893 5.92906 28.1648 5.89346 27.7379C5.77325 26.6345 5.74807 25.5229 5.81819 24.4152C5.84669 23.8767 5.90253 23.34 5.98547 22.8072C6.0712 22.2907 6.17367 21.7742 6.28449 21.2619C6.45758 20.4988 6.6804 19.7479 6.95154 19.014C7.25523 18.1665 7.62076 17.3425 8.04517 16.5486C8.65544 15.3977 9.38204 14.3124 10.2136 13.3096C10.5759 12.8407 10.9775 12.4035 11.4139 12.0027C11.6911 11.7891 12.0392 11.6888 12.3876 11.7221C12.736 11.7554 13.0587 11.9199 13.2904 12.1822C13.5222 12.4445 13.6456 12.785 13.6357 13.1348C13.6258 13.4847 13.4834 13.8177 13.2373 14.0665C12.2342 15.0989 11.3697 16.2573 10.6653 17.5126C10.2804 18.2002 9.94836 18.916 9.67201 19.6539C9.309 20.6036 9.02914 21.5831 8.83559 22.5813C8.7394 23.0874 8.67667 23.6018 8.62648 24.1183C8.54627 24.8535 8.52529 25.5941 8.56375 26.3327C8.60394 27.1606 8.70387 27.9846 8.86277 28.7981C8.97569 29.3355 9.09906 29.8729 9.25798 30.3977C9.49178 31.1974 9.79256 31.976 10.1571 32.7251C10.3767 33.1705 10.6025 33.6096 10.8472 34.0425C10.8607 34.0754 10.881 34.1051 10.9069 34.1295C10.9327 34.154 10.9635 34.1727 10.9971 34.1843C11.0307 34.196 11.0664 34.2004 11.1019 34.1972C11.1373 34.194 11.1717 34.1833 11.2027 34.1658C11.8763 33.9454 12.5898 33.874 13.2937 33.9567C14.2852 34.0647 15.2301 34.435 16.0309 35.0294C16.8599 35.6369 17.5036 36.463 17.8899 37.4153C18.1733 38.0646 18.2974 38.7723 18.2516 39.4792ZM12.7229 36.7044C12.1749 36.7027 11.6389 36.8637 11.1825 37.1669C10.7261 37.4701 10.3699 37.9019 10.1591 38.4077C9.94827 38.9134 9.89224 39.4703 9.99812 40.0079C10.104 40.5455 10.367 41.0396 10.7539 41.4276C11.1407 41.8157 11.634 42.0802 12.1713 42.1877C12.7086 42.2952 13.2657 42.2409 13.7721 42.0316C14.2784 41.8223 14.7113 41.4674 15.0159 41.0119C15.3205 40.5565 15.4831 40.0209 15.4831 39.4729C15.4844 39.1097 15.4141 38.7497 15.2759 38.4138C15.1378 38.0778 14.9347 37.7724 14.6782 37.5152C14.4217 37.2579 14.117 37.0539 13.7814 36.9147C13.4459 36.7756 13.0861 36.7041 12.7229 36.7044Z" fill="white"/>
<path d="M3.73128 4.60053C3.48989 4.60791 3.25531 4.51985 3.07839 4.35546C2.90147 4.19107 2.79646 3.96357 2.78612 3.72229C2.78329 3.47354 2.87842 3.23367 3.05096 3.05448C3.2235 2.87528 3.45961 2.77115 3.70828 2.76458C3.82981 2.7659 3.94985 2.79151 4.06134 2.8399C4.17283 2.88828 4.27352 2.95847 4.35749 3.04634C4.44146 3.1342 4.50701 3.23797 4.55029 3.35154C4.59358 3.46511 4.61372 3.58618 4.60953 3.70765C4.59489 3.88539 4.6618 3.9063 4.804 3.9293C5.64042 4.07149 6.47685 4.21578 7.31327 4.37679C7.52238 4.41861 7.61229 4.37679 7.67711 4.16768C7.93222 3.36262 8.20615 2.56384 8.47381 1.76296C8.49441 1.72148 8.50066 1.67434 8.49158 1.62893C8.4825 1.58351 8.4586 1.5424 8.42362 1.51203C8.27598 1.35013 8.19221 1.14008 8.18793 0.921003C8.18364 0.701927 8.25913 0.488761 8.40034 0.321209C8.54154 0.153656 8.73883 0.0431387 8.95547 0.0102413C9.1721 -0.0226562 9.39331 0.0243087 9.57789 0.142389C9.77186 0.266828 9.9102 0.461446 9.96398 0.685535C10.0178 0.909625 9.98282 1.14583 9.86646 1.34475C9.83947 1.37821 9.82475 1.41991 9.82475 1.46289C9.82475 1.50588 9.83947 1.54758 9.86646 1.58104C10.2972 2.24809 10.7175 2.9235 11.1441 3.59264C11.5226 4.1865 11.8843 4.795 12.2942 5.36586C12.5353 5.6611 12.7996 5.93661 13.0846 6.18974C13.2937 6.41348 13.3083 6.5494 13.0846 6.76687L6.78632 13.0777C6.56258 13.2994 6.43502 13.314 6.23219 13.0777C5.60487 12.3396 4.76845 11.8858 3.97384 11.3798C3.28379 10.9427 2.59793 10.5015 1.91206 10.0624L1.82632 10.0038C1.74322 9.92712 1.63898 9.87714 1.52713 9.86036C1.41528 9.84358 1.30097 9.86078 1.19901 9.90974C1.04086 9.98605 0.861634 10.0069 0.690185 9.96899C0.518736 9.93106 0.36504 9.83654 0.253846 9.70063C0.130167 9.57682 0.0468106 9.41851 0.0147176 9.24648C-0.0173754 9.07445 0.00329455 8.89673 0.0740144 8.73665C0.132148 8.57275 0.238189 8.43009 0.378383 8.32718C0.518578 8.22427 0.686459 8.16586 0.860254 8.15952C0.991888 8.14843 1.12433 8.1671 1.24777 8.21416C1.3712 8.26122 1.48246 8.33545 1.57331 8.43136C1.5948 8.46116 1.62658 8.48193 1.6625 8.48965C1.69842 8.49738 1.73593 8.49151 1.76777 8.47318C2.61675 8.1867 3.46572 7.90023 4.31678 7.62212C4.43388 7.58448 4.44433 7.53429 4.42551 7.42974C4.26241 6.5264 4.09931 5.62306 3.94666 4.71136C3.91111 4.55035 3.81911 4.59635 3.73128 4.60053ZM4.69526 4.52944C4.48616 4.47716 4.5217 4.57335 4.53425 4.64445C4.7099 5.62934 4.88346 6.61632 5.06329 7.59912C5.11347 7.88141 5.06329 7.99433 4.79145 8.08633L1.96852 9.03568C1.90369 9.05868 1.82214 9.05868 1.8096 9.1695C1.79705 9.28033 1.86396 9.31588 1.93297 9.35979C2.10234 9.46434 2.2759 9.5689 2.44319 9.67345C3.44062 10.3008 4.43806 10.9281 5.42922 11.5784C5.57142 11.6704 5.63833 11.6516 5.75125 11.5387C7.61369 9.66927 9.47961 7.80125 11.349 5.93463C11.4619 5.8238 11.6292 5.72552 11.6606 5.58751C11.692 5.4495 11.5289 5.31568 11.4515 5.18394C11.3741 5.0522 11.3177 4.97483 11.2424 4.86819C10.8911 4.31406 10.5419 3.75993 10.1968 3.19534C9.91804 2.759 9.63923 2.32197 9.36042 1.88424C9.32278 1.82778 9.28932 1.77133 9.19941 1.78178C9.10949 1.79224 9.07394 1.85288 9.05722 1.93234C9.04547 1.97144 9.03151 2.00984 9.01539 2.04735L8.09951 4.795C8.02214 5.02293 7.91968 5.09402 7.70221 5.05848C7.32163 4.99574 6.94106 4.92465 6.56049 4.84937L4.69526 4.52944ZM6.49357 12.4943L6.64831 12.3521L12.2231 6.77733C12.5117 6.48876 12.5033 6.49504 12.2231 6.19183C12.1102 6.07264 12.0558 6.09146 11.9512 6.19183C10.6046 7.54684 9.25587 8.89767 7.90504 10.2443L6.19873 11.9506C6.16319 11.9883 6.07745 12.0364 6.10673 12.074C6.22174 12.2204 6.35766 12.35 6.49357 12.4943ZM0.918803 8.76802C0.841526 8.76945 0.767624 8.79995 0.711821 8.85342C0.656018 8.9069 0.622409 8.97944 0.617691 9.05659C0.615195 9.13589 0.644305 9.21294 0.698618 9.27078C0.752931 9.32862 0.827997 9.36252 0.907303 9.36502C0.986608 9.36751 1.06366 9.3384 1.1215 9.28409C1.17934 9.22978 1.21324 9.15471 1.21573 9.07541C1.21686 8.99535 1.18626 8.91809 1.13063 8.8605C1.075 8.80291 0.998855 8.76967 0.918803 8.76802ZM4.01358 3.70556C4.01607 3.62459 3.9863 3.54594 3.93081 3.48693C3.90333 3.4577 3.87037 3.43418 3.8338 3.41769C3.79724 3.40121 3.75778 3.39209 3.71769 3.39085C3.63672 3.38836 3.55808 3.41813 3.49906 3.47362C3.44004 3.52911 3.40548 3.60577 3.40298 3.68674C3.40128 3.7264 3.40766 3.766 3.42174 3.80312C3.43582 3.84024 3.45731 3.87411 3.48488 3.90266C3.51246 3.93122 3.54556 3.95387 3.58217 3.96923C3.61878 3.9846 3.65813 3.99235 3.69782 3.99203C3.73789 3.994 3.77794 3.98794 3.81563 3.97421C3.85331 3.96048 3.88788 3.93936 3.91729 3.91209C3.94671 3.88482 3.97037 3.85195 3.98691 3.8154C4.00344 3.77886 4.01251 3.73938 4.01358 3.69929V3.70556ZM9.38551 0.905626C9.38608 0.829671 9.35869 0.756161 9.30856 0.699093C9.25843 0.642025 9.18907 0.605385 9.11368 0.596149C9.03384 0.590828 8.95487 0.615221 8.89194 0.664635C8.82902 0.714048 8.78659 0.784989 8.77283 0.863805C8.7697 0.905094 8.775 0.946588 8.78841 0.985764C8.80182 1.02494 8.82306 1.06098 8.85083 1.09169C8.87861 1.1224 8.91234 1.14714 8.94998 1.1644C8.98761 1.18166 9.02837 1.19109 9.06976 1.1921C9.1495 1.19552 9.22738 1.16736 9.28649 1.11373C9.3456 1.0601 9.38118 0.985324 9.38551 0.905626Z" fill="white"/>
</svg>
